<?xml version="1.0" encoding="utf-8"?>
<!-- Generator: Adobe Illustrator 17.1.0, SVG Export Plug-In . SVG Version: 6.00 Build 0)  -->
<!DOCTYPE svg PUBLIC "-//W3C//DTD SVG 1.1//EN" "http://www.w3.org/Graphics/SVG/1.1/DTD/svg11.dtd">
<svg version="1.1" id="Layer_1" xmlns="http://www.w3.org/2000/svg" xmlns:xlink="http://www.w3.org/1999/xlink" x="0px" y="0px"
	 viewBox="0 0 100 100" enable-background="new 255 255 255 255" xml:space="preserve">
<path fill="#000" d="M22.2,92.6v-46c0-0.7-0.5-1.2-1.2-1.2H3.6c-1.2,0-1.7-1.5-0.7-2.2L49.6,8.4c0.4-0.3,1-0.3,1.5,0l45.9,34.7
	c0.9,0.7,0.4,2.2-0.7,2.2H78.7c-0.7,0-1.2,0.5-1.2,1.2v44.8c0,0.7-0.5,1.2-1.2,1.2H58.8c-0.7,0-1.2-0.5-1.2-1.2V70.2
	c0-0.7-0.5-1.2-1.2-1.2H43.2c-0.7,0-1.2,0.5-1.2,1.2v21.1c0,0.7-0.5,1.2-1.2,1.2H22.1"/>
</svg>