<?xml version="1.0" encoding="utf-8"?>
<!-- Generator: Adobe Illustrator 15.0.2, SVG Export Plug-In  -->
<!DOCTYPE svg PUBLIC "-//W3C//DTD SVG 1.1//EN" "http://www.w3.org/Graphics/SVG/1.1/DTD/svg11.dtd" [
	<!ENTITY ns_flows "http://ns.adobe.com/Flows/1.0/">
]>
<svg version="1.1"
	 xmlns="http://www.w3.org/2000/svg" xmlns:xlink="http://www.w3.org/1999/xlink" xmlns:a="http://ns.adobe.com/AdobeSVGViewerExtensions/3.0/"
	 x="0px" y="0px" width="295px" height="121px" viewBox="-2.845 1.226 295 121"
	 overflow="visible" enable-background="new -2.845 1.226 295 121" xml:space="preserve">
<defs>
</defs>
<path display="none" fill="#FFFFFF" d="M39.014,111.111c-1.943,0.936-6.553,2.088-12.385,2.088
	c-16.777,0-25.418-10.512-25.418-24.338c0-16.561,11.809-25.707,26.498-25.707c5.688,0,10.009,1.08,11.953,2.16l-2.305,8.642
	c-2.16-0.937-5.256-1.8-9.217-1.8c-8.641,0-15.409,5.256-15.409,16.056c0,9.721,5.761,15.842,15.481,15.842
	c3.385,0,6.984-0.648,9.217-1.584L39.014,111.111z"/>
<path display="none" fill="#FFFFFF" d="M52.979,98.294c0.287,4.535,4.824,6.695,9.938,6.695c3.744,0,6.768-0.504,9.721-1.512
	l1.439,7.416c-3.6,1.514-7.992,2.232-12.744,2.232c-11.953,0-18.795-6.912-18.795-17.93c0-8.928,5.545-18.792,17.785-18.792
	c11.377,0,15.697,8.857,15.697,17.57c0,1.871-0.215,3.527-0.359,4.32H52.979z M65.868,90.804c0-2.664-1.152-7.127-6.191-7.127
	c-4.609,0-6.48,4.248-6.77,7.127H65.868z"/>
<path display="none" fill="#FFFFFF" d="M82.571,88.789c0-5.184-0.072-8.568-0.289-11.592h9.361l0.432,6.481h0.289
	c1.799-5.185,6.049-7.345,9.504-7.345c1.008,0,1.512,0.072,2.305,0.217v10.296c-0.863-0.145-1.729-0.289-2.953-0.289
	c-4.031,0-6.768,2.16-7.488,5.545c-0.145,0.721-0.215,1.584-0.215,2.449v17.857H82.571V88.789z"/>
<path display="none" fill="#FFFFFF" d="M123.682,67.691v9.505h7.85v8.065h-7.85v12.744c0,4.248,1.08,6.193,4.32,6.193
	c1.512,0,2.232-0.072,3.24-0.289l0.072,8.281c-1.367,0.504-4.031,0.936-7.057,0.936c-3.527,0-6.48-1.223-8.281-3.023
	c-2.016-2.088-3.023-5.473-3.023-10.441v-14.4h-4.679v-8.065h4.679v-6.553L123.682,67.691z"/>
<path display="none" fill="#FFFFFF" d="M149.17,67.403c0,3.024-2.232,5.473-5.904,5.473c-3.457,0-5.689-2.448-5.689-5.473
	c0-3.097,2.305-5.473,5.832-5.473C146.938,61.931,149.098,64.307,149.17,67.403z M137.865,112.408V77.196h10.943v35.211H137.865z"/>
<path display="none" fill="#FFFFFF" d="M182.158,100.259c0-5.523,3.428-10.305,8.115-11.771l8.289-24.613h-11.664l-6.193,20.738
	c-1.656,5.545-3.168,11.305-4.393,17.137h-0.215c-1.152-6.049-2.664-11.52-4.32-17.354l-5.906-20.521h-12.023l15.553,48.533h12.818
	l1.811-5.373C182.85,105.093,182.158,102.763,182.158,100.259z"/>
<path display="none" fill="#FFFFFF" d="M235.139,94.406c0,12.889-9.145,18.793-18.578,18.793c-10.297,0-18.217-6.768-18.217-18.145
	c0-11.449,7.488-18.722,18.865-18.722C227.938,76.332,235.139,83.748,235.139,94.406z M209.648,94.765
	c0,6.049,2.52,10.586,7.201,10.586c4.32,0,6.984-4.25,6.984-10.658c0-5.184-2.018-10.512-6.984-10.512
	C211.664,84.181,209.648,89.582,209.648,94.765z"/>
<path display="none" fill="#FFFFFF" d="M262.129,93.974l11.594-16.778h-11.881l-3.096,5.76c-0.938,1.729-1.801,3.457-2.736,5.4
	h-0.145c-0.936-1.729-1.873-3.457-2.881-5.256l-3.455-5.905h-12.242l11.666,17.282l-1.939,2.908
	c0.037,0.438,0.062,0.877,0.062,1.324c0,6.625-4.27,12.172-9.939,13.49L237,112.408h12.025l3.311-6.338
	c0.865-1.727,1.801-3.455,2.666-5.328h0.215c0.865,1.801,1.729,3.602,2.736,5.328l3.529,6.338h12.385L262.129,93.974z"/>
<path display="none" fill="#FFFFFF" d="M236.641,88.189l-1.15-0.295l0.033-1.479c0-7.478-5.393-13.561-12.021-13.561
	c-3.154,0-6.139,1.374-8.4,3.867l-0.756,0.834l-1.012-0.494c-1.754-0.854-3.607-1.288-5.51-1.288c-7.1,0-13.035,5.989-13.805,13.93
	l-0.121,1.238l-1.24,0.111c-4.205,0.375-7.5,4.418-7.5,9.205c0,5.098,3.654,9.244,8.146,9.244c1.393,0,2.775-0.416,4-1.203
	l1.027-0.66l0.855,0.873c3.158,3.223,9.109,5.227,15.531,5.227c6.043,0,11.625-1.742,14.938-4.658l0.705-0.621l0.869,0.365
	c1.064,0.449,2.18,0.678,3.311,0.678c5.258,0,9.535-4.842,9.535-10.793C244.076,93.714,240.949,89.289,236.641,88.189z
	 M217.432,95.742v6.746c0,1.906-1.258,3.453-2.816,3.453c-1.555,0-2.814-1.547-2.814-3.453v-6.746
	c-2.104-1.041-3.553-3.203-3.553-5.707c0-3.52,2.852-6.371,6.367-6.371c3.52,0,6.373,2.852,6.373,6.371
	C220.988,92.539,219.537,94.701,217.432,95.742z"/>
<rect y="7.297" display="none" fill="none" width="389.5" height="52"/>
<text transform="matrix(1 0 0 1 0 43.7104)" display="none" fill="#242424" font-family="'HelveticaNeue-Bold'" font-size="51">Powered by</text>
<path fill="#0078AE" d="M39.168,110.805c-1.943,0.936-6.553,2.088-12.385,2.088c-16.777,0-25.418-10.512-25.418-24.338
	c0-16.561,11.809-25.707,26.498-25.707c5.688,0,10.009,1.08,11.953,2.16l-2.305,8.642c-2.16-0.937-5.256-1.8-9.217-1.8
	c-8.641,0-15.409,5.256-15.409,16.056c0,9.721,5.761,15.842,15.481,15.842c3.385,0,6.984-0.648,9.217-1.584L39.168,110.805z"/>
<path fill="#0078AE" d="M53.133,97.988c0.287,4.535,4.824,6.695,9.938,6.695c3.744,0,6.768-0.504,9.721-1.512l1.439,7.416
	c-3.6,1.514-7.992,2.232-12.744,2.232c-11.953,0-18.795-6.912-18.795-17.93c0-8.928,5.545-18.792,17.785-18.792
	c11.377,0,15.697,8.857,15.697,17.57c0,1.871-0.215,3.527-0.359,4.32H53.133z M66.022,90.498c0-2.664-1.152-7.127-6.191-7.127
	c-4.609,0-6.48,4.248-6.77,7.127H66.022z"/>
<path fill="#0078AE" d="M82.725,88.482c0-5.184-0.072-8.568-0.289-11.592h9.361l0.432,6.481h0.289
	c1.799-5.185,6.049-7.345,9.504-7.345c1.008,0,1.512,0.072,2.305,0.217v10.296c-0.863-0.145-1.729-0.289-2.953-0.289
	c-4.031,0-6.768,2.16-7.488,5.545c-0.145,0.721-0.215,1.584-0.215,2.449v17.857H82.725V88.482z"/>
<path fill="#0078AE" d="M123.836,67.385v9.505h7.85v8.065h-7.85v12.744c0,4.248,1.08,6.193,4.32,6.193
	c1.512,0,2.232-0.072,3.24-0.289l0.072,8.281c-1.367,0.504-4.031,0.936-7.057,0.936c-3.527,0-6.48-1.223-8.281-3.023
	c-2.016-2.088-3.023-5.473-3.023-10.441v-14.4h-4.679V76.89h4.679v-6.553L123.836,67.385z"/>
<path fill="#0078AE" d="M149.324,67.097c0,3.024-2.232,5.473-5.904,5.473c-3.457,0-5.689-2.448-5.689-5.473
	c0-3.097,2.305-5.473,5.832-5.473C147.092,61.625,149.252,64,149.324,67.097z M138.02,112.102V76.89h10.943v35.211H138.02z"/>
<path fill="#455560" d="M182.312,99.953c0-5.523,3.428-10.305,8.115-11.771l8.289-24.613h-11.664l-6.193,20.738
	c-1.656,5.545-3.168,11.305-4.393,17.137h-0.215c-1.152-6.049-2.664-11.52-4.32-17.354l-5.906-20.521h-12.023l15.553,48.533h12.818
	l1.811-5.373C183.004,104.787,182.312,102.457,182.312,99.953z"/>
<path display="none" fill="#FFFFFF" d="M235.293,94.1c0,12.889-9.145,18.793-18.578,18.793c-10.297,0-18.217-6.768-18.217-18.145
	c0-11.449,7.488-18.722,18.865-18.722C228.092,76.026,235.293,83.441,235.293,94.1z M209.803,94.459
	c0,6.049,2.52,10.586,7.201,10.586c4.32,0,6.984-4.25,6.984-10.658c0-5.184-2.018-10.512-6.984-10.512
	C211.818,83.875,209.803,89.275,209.803,94.459z"/>
<path fill="#455560" d="M262.283,93.668l11.594-16.778h-11.881l-3.096,5.76c-0.938,1.729-1.801,3.457-2.736,5.4h-0.145
	c-0.936-1.729-1.873-3.457-2.881-5.256l-3.455-5.905h-12.242l11.666,17.282l-1.939,2.908c0.037,0.438,0.062,0.877,0.062,1.324
	c0,6.625-4.27,12.172-9.939,13.49l-0.137,0.207h12.025l3.311-6.338c0.865-1.727,1.801-3.455,2.666-5.328h0.215
	c0.865,1.801,1.729,3.602,2.736,5.328l3.529,6.338h12.385L262.283,93.668z"/>
<path fill="#0078AE" d="M236.795,87.883l-1.15-0.295l0.033-1.479c0-7.478-5.393-13.561-12.021-13.561
	c-3.154,0-6.139,1.374-8.4,3.867L214.5,77.25l-1.012-0.494c-1.754-0.854-3.607-1.288-5.51-1.288c-7.1,0-13.035,5.989-13.805,13.93
	l-0.121,1.238l-1.24,0.111c-4.205,0.375-7.5,4.418-7.5,9.205c0,5.098,3.654,9.244,8.146,9.244c1.393,0,2.775-0.416,4-1.203
	l1.027-0.66l0.855,0.873c3.158,3.223,9.109,5.227,15.531,5.227c6.043,0,11.625-1.742,14.938-4.658l0.705-0.621l0.869,0.365
	c1.064,0.449,2.18,0.678,3.311,0.678c5.258,0,9.535-4.842,9.535-10.793C244.23,93.408,241.104,88.982,236.795,87.883z
	 M217.586,95.436v6.746c0,1.906-1.258,3.453-2.816,3.453c-1.555,0-2.814-1.547-2.814-3.453v-6.746
	c-2.104-1.041-3.553-3.203-3.553-5.707c0-3.52,2.852-6.371,6.367-6.371c3.52,0,6.373,2.852,6.373,6.371
	C221.143,92.232,219.691,94.395,217.586,95.436z"/>
<rect y="7.297" fill="none" width="389.5" height="52"/>
<text transform="matrix(1 0 0 1 0 43.7065)" fill="#242424" font-family="'HelveticaNeue-Bold'" font-size="51">Powered by</text>
</svg>
