<?xml version="1.0" encoding="utf-8"?>
<!-- Generator: Adobe Illustrator 15.0.2, SVG Export Plug-In  -->
<!DOCTYPE svg PUBLIC "-//W3C//DTD SVG 1.1//EN" "http://www.w3.org/Graphics/SVG/1.1/DTD/svg11.dtd" [
	<!ENTITY ns_flows "http://ns.adobe.com/Flows/1.0/">
]>
<svg version="1.1"
	 xmlns="http://www.w3.org/2000/svg" xmlns:xlink="http://www.w3.org/1999/xlink" xmlns:a="http://ns.adobe.com/AdobeSVGViewerExtensions/3.0/"
	 x="0px" y="0px" width="67px" height="66px" viewBox="-5 -3.023 67 66"
	 overflow="visible" enable-background="new -5 -3.023 67 66" xml:space="preserve">
<defs>
</defs>
<path fill="#353535" d="M51.604,29.889c-0.076-0.979-0.035-1.973-0.213-2.942c2.315-1.054,4.681-2.366,6.807-3.885
	c-0.327-1.461-0.788-2.882-1.341-4.273c-2.7-0.173-5.44-0.016-7.972,0.368c-0.533-0.827-0.97-1.719-1.597-2.482
	c-0.564-0.81-1.205-1.556-1.886-2.27c1.312-2.273,2.331-4.602,3.221-7.145c-1.131-0.962-2.316-1.879-3.589-2.653
	c-2.302,1.464-4.38,3.12-6.248,4.992c-0.871-0.465-1.812-0.764-2.735-1.107c-0.941-0.278-1.894-0.55-2.862-0.719
	c-0.291-2.521-0.821-5.163-1.605-7.669c-1.483-0.107-2.97-0.151-4.455-0.03c-0.999,2.485-1.7,5.155-2.119,7.699
	c-0.969,0.169-1.921,0.44-2.862,0.719c-0.923,0.344-1.864,0.643-2.735,1.107c-1.746-1.92-3.691-3.689-5.807-5.262
	c-1.299,0.739-2.471,1.667-3.646,2.579c0.729,2.683,1.617,5.125,2.836,7.488c-0.681,0.715-1.321,1.46-1.886,2.27
	c-0.627,0.764-1.063,1.655-1.597,2.483c-2.49-0.508-5.104-0.799-7.788-0.854c-0.527,1.398-1.07,2.794-1.396,4.256
	c2.067,1.727,4.361,3.2,6.68,4.387c-0.179,0.971-0.138,1.963-0.214,2.942c0.076,0.98,0.035,1.974,0.214,2.943
	C4.491,33.886,2.126,35.199,0,36.717c0.328,1.461,0.788,2.883,1.341,4.272c2.7,0.175,5.44,0.017,7.972-0.367
	c0.533,0.827,0.97,1.719,1.597,2.482c0.564,0.81,1.205,1.556,1.886,2.27c-1.312,2.274-2.331,4.602-3.22,7.146
	c1.131,0.961,2.316,1.878,3.588,2.652c2.302-1.464,4.38-3.119,6.248-4.992c0.871,0.466,1.812,0.765,2.735,1.107
	c0.941,0.278,1.894,0.55,2.862,0.719c0.292,2.52,0.822,5.163,1.605,7.67c1.483,0.106,2.97,0.151,4.455,0.029
	c0.999-2.485,1.7-5.155,2.119-7.699c0.969-0.169,1.921-0.44,2.862-0.719c0.923-0.343,1.864-0.642,2.735-1.107
	c1.746,1.92,3.691,3.69,5.807,5.263c1.299-0.739,2.471-1.667,3.646-2.58c-0.729-2.683-1.617-5.124-2.836-7.488
	c0.681-0.714,1.321-1.46,1.886-2.27c0.627-0.764,1.063-1.655,1.597-2.482c2.49,0.507,5.104,0.798,7.788,0.852
	c0.528-1.397,1.071-2.793,1.396-4.255c-2.067-1.727-4.361-3.2-6.679-4.387C51.568,31.861,51.527,30.869,51.604,29.889z
	 M40.319,38.033c-1.673,2.398-4.205,4.135-6.931,5.058c-2.745,0.893-5.835,0.893-8.58,0c-2.726-0.923-5.258-2.659-6.931-5.058
	c-1.749-2.349-2.621-5.213-2.667-8.145c0.046-2.93,0.918-5.794,2.667-8.145c1.673-2.396,4.205-4.134,6.931-5.057
	c2.745-0.892,5.835-0.892,8.58,0c2.726,0.923,5.258,2.66,6.931,5.057c1.75,2.351,2.621,5.215,2.667,8.145
	C42.94,32.82,42.069,35.685,40.319,38.033z"/>
</svg>
