<?xml version="1.0" encoding="utf-8"?>
<!-- Generator: Adobe Illustrator 18.1.0, SVG Export Plug-In . SVG Version: 6.00 Build 0)  -->
<svg version="1.1" xmlns="http://www.w3.org/2000/svg" xmlns:xlink="http://www.w3.org/1999/xlink" x="0px" y="0px"
	 viewBox="0 0 351.6 103.2" enable-background="new 0 0 351.6 103.2" xml:space="preserve">
<g id="Layer_2">
</g>
<g id="one_white_2">
	<g>
		<path fill="#363C74" d="M157.3,59.2c0.4,1,0.8,2,1.2,3c0.4-1,0.8-2.1,1.3-3.1c0.4-1,0.9-2,1.4-2.9l18.5-34.7
			c0.2-0.4,0.5-0.8,0.7-1c0.2-0.3,0.5-0.4,0.8-0.6c0.3-0.1,0.6-0.2,1-0.2c0.4,0,0.8,0,1.3,0h8.8v62.6h-10.3V41.9
			c0-0.7,0-1.6,0.1-2.5c0-0.9,0.1-1.8,0.2-2.7l-18.9,35.5c-0.4,0.8-1,1.4-1.7,1.9c-0.7,0.4-1.5,0.7-2.4,0.7h-1.6
			c-0.9,0-1.7-0.2-2.4-0.7c-0.7-0.4-1.3-1.1-1.7-1.9l-19.2-35.6c0.1,1,0.2,1.9,0.2,2.8c0,0.9,0.1,1.8,0.1,2.5v40.4h-10.3V19.7h8.8
			c0.5,0,1,0,1.3,0c0.4,0,0.7,0.1,1,0.2c0.3,0.1,0.6,0.3,0.8,0.6c0.3,0.3,0.5,0.6,0.7,1l18.7,34.7C156.4,57.3,156.9,58.2,157.3,59.2
			z"/>
		<path fill="#363C74" d="M203,51.7h22.4v8.9H203V51.7z"/>
		<path fill="#363C74" d="M248.1,60.3v22h-11.6V19.7h20.4c4.2,0,7.8,0.5,10.9,1.5c3.1,1,5.6,2.4,7.6,4.1c2,1.8,3.5,3.9,4.4,6.3
			c1,2.5,1.4,5.1,1.4,8c0,3-0.5,5.8-1.5,8.3c-1,2.5-2.5,4.7-4.5,6.5c-2,1.8-4.5,3.2-7.6,4.2c-3,1-6.6,1.5-10.6,1.5H248.1z
			 M248.1,51.2h8.7c2.1,0,4-0.3,5.6-0.8c1.6-0.5,2.9-1.3,3.9-2.3c1-1,1.8-2.2,2.3-3.6c0.5-1.4,0.8-3,0.8-4.8c0-1.7-0.3-3.2-0.8-4.5
			c-0.5-1.4-1.3-2.5-2.3-3.5c-1-1-2.4-1.7-3.9-2.2c-1.6-0.5-3.4-0.8-5.6-0.8h-8.7V51.2z"/>
		<path fill="#363C74" d="M302.5,25c0,0.9-0.2,1.8-0.6,2.6c-0.4,0.8-0.9,1.5-1.5,2.1c-0.6,0.6-1.3,1.1-2.2,1.4
			c-0.8,0.4-1.7,0.5-2.7,0.5c-0.9,0-1.8-0.2-2.6-0.5c-0.8-0.4-1.5-0.8-2.1-1.4c-0.6-0.6-1.1-1.3-1.4-2.1c-0.4-0.8-0.5-1.7-0.5-2.6
			c0-1,0.2-1.8,0.5-2.7c0.4-0.8,0.8-1.6,1.4-2.2c0.6-0.6,1.3-1.1,2.1-1.4c0.8-0.4,1.7-0.5,2.6-0.5c1,0,1.8,0.2,2.7,0.5
			c0.8,0.4,1.6,0.8,2.2,1.4c0.6,0.6,1.1,1.3,1.5,2.2C302.3,23.1,302.5,24,302.5,25z M300.9,37.9v44.4h-10.7V37.9H300.9z"/>
		<path fill="#363C74" d="M313,82.3V37.9h6.5c1.4,0,2.3,0.6,2.7,1.9l0.7,3.5c0.9-0.9,1.8-1.8,2.8-2.5c1-0.8,2-1.4,3.2-1.9
			c1.1-0.5,2.3-1,3.6-1.3c1.3-0.3,2.7-0.4,4.2-0.4c2.4,0,4.6,0.4,6.4,1.2c1.9,0.8,3.4,2,4.7,3.5c1.3,1.5,2.2,3.3,2.9,5.3
			c0.6,2.1,1,4.3,1,6.8v28.2h-10.7V54c0-2.7-0.6-4.8-1.9-6.3c-1.3-1.5-3.1-2.2-5.6-2.2c-1.8,0-3.6,0.4-5.2,1.3
			c-1.6,0.8-3.1,2-4.6,3.4v32.1H313z"/>
	</g>
	<g id="icon_8_">
		<path fill="#CCD4CA" d="M51.6,0C23.1,0,0,23.1,0,51.6c0,28.5,23.1,51.6,51.6,51.6c28.5,0,51.6-23.1,51.6-51.6
			C103.2,23.1,80.1,0,51.6,0z M51.6,94.6c-23.8,0-43-19.2-43-43c0-23.8,19.2-43,43-43c23.8,0,43,19.2,43,43
			C94.6,75.4,75.4,94.6,51.6,94.6z"/>
		<g>
			<path fill="#6E8778" d="M73.5,81.5c0,1.4-1.1,2.6-2.6,2.6H32.3c-1.4,0-2.6-1.1-2.6-2.6V21.7c0-1.4,1.1-2.6,2.6-2.6h38.6
				c1.4,0,2.6,1.1,2.6,2.6V81.5z"/>
		</g>
		<g>
			<path fill="#FFFFFF" d="M45.2,51.6c0,0.4-0.4,0.8-0.8,0.8h-6.8c-0.4,0-0.8-0.4-0.8-0.8v-6.8c0-0.4,0.4-0.8,0.8-0.8h6.8
				c0.4,0,0.8,0.3,0.8,0.8V51.6z"/>
			<path fill="#FFFFFF" d="M55.8,51.6c0,0.4-0.4,0.8-0.8,0.8h-6.8c-0.4,0-0.8-0.4-0.8-0.8v-6.8c0-0.4,0.4-0.8,0.8-0.8H55
				c0.4,0,0.8,0.3,0.8,0.8V51.6z"/>
			<path fill="#FFFFFF" d="M66.4,51.6c0,0.4-0.4,0.8-0.8,0.8h-6.8c-0.4,0-0.8-0.4-0.8-0.8v-6.8c0-0.4,0.4-0.8,0.8-0.8h6.8
				c0.4,0,0.8,0.3,0.8,0.8V51.6z"/>
			<path fill="#FFFFFF" d="M66.4,37.1c0,0.4-0.4,0.8-0.8,0.8h-28c-0.4,0-0.8-0.4-0.8-0.8V28c0-0.4,0.4-0.8,0.8-0.8h28
				c0.4,0,0.8,0.4,0.8,0.8V37.1z"/>
			<path fill="#FFFFFF" d="M45.2,62.2c0,0.4-0.4,0.8-0.8,0.8h-6.8c-0.4,0-0.8-0.4-0.8-0.8v-6.8c0-0.4,0.4-0.8,0.8-0.8h6.8
				c0.4,0,0.8,0.3,0.8,0.8V62.2z"/>
			<path fill="#FFFFFF" d="M55.8,62.2c0,0.4-0.4,0.8-0.8,0.8h-6.8c-0.4,0-0.8-0.4-0.8-0.8v-6.8c0-0.4,0.4-0.8,0.8-0.8H55
				c0.4,0,0.8,0.3,0.8,0.8V62.2z"/>
			<path fill="#FFFFFF" d="M66.4,62.2c0,0.4-0.4,0.8-0.8,0.8h-6.8c-0.4,0-0.8-0.4-0.8-0.8v-6.8c0-0.4,0.4-0.8,0.8-0.8h6.8
				c0.4,0,0.8,0.3,0.8,0.8V62.2z"/>
			<path fill="#FFFFFF" d="M45.2,72.8c0,0.4-0.4,0.8-0.8,0.8h-6.8c-0.4,0-0.8-0.4-0.8-0.8V66c0-0.4,0.4-0.8,0.8-0.8h6.8
				c0.4,0,0.8,0.4,0.8,0.8V72.8z"/>
			<path fill="#FFFFFF" d="M55.8,72.8c0,0.4-0.4,0.8-0.8,0.8h-6.8c-0.4,0-0.8-0.4-0.8-0.8V66c0-0.4,0.4-0.8,0.8-0.8H55
				c0.4,0,0.8,0.4,0.8,0.8V72.8z"/>
			<path fill="#FFFFFF" d="M66.4,72.8c0,0.4-0.4,0.8-0.8,0.8h-6.8c-0.4,0-0.8-0.4-0.8-0.8V66c0-0.4,0.4-0.8,0.8-0.8h6.8
				c0.4,0,0.8,0.4,0.8,0.8V72.8z"/>
		</g>
	</g>
</g>
<g id="on_white_1">
</g>
<g id="one_green_2">
</g>
<g id="on_green_1">
</g>
</svg>
