<?xml version="1.0" encoding="utf-8"?>
<!-- Generator: Adobe Illustrator 18.1.0, SVG Export Plug-In . SVG Version: 6.00 Build 0)  -->
<svg version="1.1" id="Layer_1" xmlns="http://www.w3.org/2000/svg" xmlns:xlink="http://www.w3.org/1999/xlink" x="0px" y="0px"
	 viewBox="0 335.9 612.1 120.4" enable-background="new 0 335.9 612.1 120.4" xml:space="preserve">
<g>
	<path fill="#6E8778" d="M82.2,422.9c1.1,0,2.1,0.4,2.9,1.3l8.1,8.8c-4.5,5.6-10,9.7-16.5,12.8c-6.5,2.9-14.4,4.4-23.4,4.4
		c-8.1,0-15.6-1.3-22.1-4.1c-6.5-2.8-12.1-6.7-16.8-11.7c-4.7-4.9-8.1-10.9-10.7-17.8S0,402,0,393.9c0-8.3,1.3-15.8,4.1-22.8
		s6.7-12.8,11.6-17.8c4.9-4.9,10.9-8.8,17.8-11.6c6.9-2.8,14.6-4.1,22.9-4.1c8.1,0,15.3,1.3,21.4,3.9c6.1,2.7,11.3,6.1,15.7,10.4
		l-6.8,9.5c-0.4,0.7-0.9,1.2-1.6,1.6c-0.7,0.4-1.5,0.7-2.7,0.7c-1.2,0-2.4-0.4-3.6-1.3c-1.2-0.9-2.8-1.9-4.7-2.9
		c-1.9-1.1-4.3-2-7.1-2.9c-2.9-0.9-6.5-1.3-10.9-1.3c-5.2,0-10,0.9-14.2,2.7c-4.4,1.9-8.1,4.4-11.2,7.7s-5.6,7.5-7.3,12.3
		c-1.7,4.8-2.7,10.3-2.7,16.2c0,6.3,0.9,11.7,2.7,16.5s4.1,8.9,7.1,12.3c3.1,3.3,6.5,5.9,10.7,7.6s8.4,2.7,13,2.7
		c2.8,0,5.3-0.1,7.6-0.4c2.3-0.3,4.4-0.8,6.3-1.5c1.9-0.7,3.7-1.5,5.5-2.5s3.3-2.3,5.1-3.9c0.5-0.4,1.1-0.8,1.6-1.1
		C80.8,423,81.5,422.9,82.2,422.9z"/>
	<path fill="#6E8778" d="M139.8,369.5c4.9,0,9.5,0.8,13.6,2.4c4.1,1.6,7.7,3.9,10.7,6.9c2.9,3.1,5.3,6.8,7.1,11.2
		c1.7,4.4,2.5,9.5,2.5,15c0,1.5,0,2.7-0.1,3.6c-0.1,0.9-0.4,1.7-0.7,2.3c-0.3,0.5-0.8,0.9-1.3,1.2c-0.5,0.3-1.3,0.4-2.1,0.4h-48.5
		c0.5,8,2.7,13.8,6.5,17.7c3.7,3.7,8.8,5.6,14.9,5.6c3.1,0,5.7-0.4,7.9-1.1c2.3-0.7,4.1-1.5,5.7-2.4c1.6-0.8,3.1-1.6,4.4-2.4
		c1.2-0.7,2.4-1.1,3.6-1.1c0.8,0,1.5,0.1,2,0.4s1.1,0.8,1.5,1.3l5.5,6.8c-2.1,2.4-4.4,4.5-7.1,6.1c-2.5,1.6-5.3,2.9-8.1,4
		c-2.8,0.9-5.7,1.7-8.7,2.1c-2.9,0.4-5.7,0.7-8.5,0.7c-5.5,0-10.5-0.9-15.2-2.7c-4.7-1.9-8.8-4.5-12.3-8c-3.5-3.6-6.1-7.9-8.1-13
		c-2-5.2-2.9-11.2-2.9-18.1c0-5.3,0.8-10.4,2.5-15c1.7-4.7,4.3-8.8,7.5-12.3c3.2-3.5,7.2-6.3,11.9-8.3
		C128.6,370.6,134,369.5,139.8,369.5z M140.2,383.1c-5.5,0-9.7,1.6-12.9,4.7c-3.1,3.1-5.1,7.5-6,13.2h35.3c0-2.4-0.3-4.8-0.9-6.9
		c-0.7-2.1-1.7-4-3.1-5.7c-1.3-1.6-3.1-2.9-5.2-3.9C145.4,383.5,143,383.1,140.2,383.1z"/>
	<path fill="#6E8778" d="M189,448.9v-78.2H200c1.9,0,3.3,0.4,4,1.1c0.8,0.7,1.3,2,1.5,3.6l1.2,9.5c2.8-4.8,6.1-8.7,9.9-11.5
		c3.7-2.8,8-4.1,12.7-4.1c3.9,0,7.1,0.9,9.6,2.7l-2.4,14.1c-0.1,0.9-0.5,1.6-0.9,2c-0.5,0.4-1.2,0.5-2,0.5s-1.9-0.1-3.1-0.5
		c-1.3-0.4-3.1-0.5-5.2-0.5c-3.9,0-7.3,1.1-10.1,3.2s-5.2,5.3-7.1,9.5v48.7H189L189,448.9z"/>
	<path fill="#6E8778" d="M276.8,450.1c-6.8,0-12-1.9-15.6-5.7c-3.6-3.9-5.5-9.2-5.5-15.8v-43.7h-8c-1.1,0-1.9-0.3-2.7-0.9
		c-0.8-0.7-1.1-1.6-1.1-2.9v-7.5l12.5-2l4-21.3c0.3-1.1,0.7-1.9,1.5-2.4c0.8-0.5,1.6-0.8,2.8-0.8h9.7v24.6h20.5v13.4h-20.5v42.3
		c0,2.4,0.7,4.4,1.9,5.7s2.8,2,4.9,2c1.2,0,2.1-0.1,2.9-0.4c0.8-0.3,1.5-0.5,2-0.9c0.5-0.3,1.1-0.5,1.6-0.9c0.4-0.3,0.9-0.4,1.3-0.4
		c0.5,0,1.1,0.1,1.3,0.4c0.4,0.3,0.8,0.7,1.2,1.2l5.6,9.2c-2.8,2.3-5.9,4-9.5,5.2C284.3,449.5,280.6,450.1,276.8,450.1z"/>
	<path fill="#6E8778" d="M332.9,347.9c0,1.6-0.3,3.2-0.9,4.5c-0.7,1.5-1.6,2.7-2.7,3.7s-2.4,1.9-3.9,2.5s-3.1,0.9-4.7,0.9
		c-1.6,0-3.2-0.3-4.7-0.9s-2.7-1.5-3.7-2.5s-1.9-2.3-2.5-3.7s-0.9-2.9-0.9-4.5c0-1.7,0.3-3.2,0.9-4.7s1.5-2.8,2.5-3.9
		c1.1-1.1,2.3-1.9,3.7-2.5c1.5-0.7,2.9-0.9,4.7-0.9c1.7,0,3.2,0.3,4.7,0.9c1.5,0.7,2.8,1.5,3.9,2.5c1.1,1.1,2,2.4,2.7,3.9
		S332.9,346.3,332.9,347.9z M330.1,370.7v78.2h-18.8v-78.2H330.1z"/>
</g>
<g>
	<g>
		<path fill="#6E8778" d="M417.7,404.8l26.6-66h-16.5c-1.7,0-3.2,0.5-4.4,1.5c-1.2,0.9-2,2-2.4,3.2l-25.8,67.2
			c-1.7,4.5-3.2,9.6-4.4,15.4c-0.7-2.9-1.5-5.6-2.3-8.3c-0.8-2.7-1.6-5.1-2.5-7.2l-25.7-67.2c-0.5-1.3-1.3-2.5-2.5-3.3
			c-1.1-0.8-2.5-1.3-4.4-1.3h-16.5l44.5,110.1h18.5l8.3-20.5c-0.1-0.9-0.1-1.9-0.1-2.8C408.1,417,411.9,409.4,417.7,404.8z"/>
		<path fill="#6E8778" d="M585.1,407.7l25.7-37h-17.3c-0.9,0-1.7,0.3-2.4,0.7c-0.7,0.4-1.3,1.2-1.9,2.1L576,394
			c-0.5,0.8-1.1,1.7-1.5,2.5c-0.4,0.8-0.7,1.7-0.9,2.5l-16.2-25.8c-0.5-0.8-1.1-1.5-1.7-1.9c-0.7-0.4-1.7-0.5-3.1-0.5h-18.1
			l25.7,37.8l-9.3,14.1c-0.3,11.9-6.8,21.8-16.1,26.2h15.6c1.2,0,2.3-0.4,3.1-1.1c0.8-0.8,1.5-1.6,2-2.4l14.6-22.6
			c0.8-1.2,1.5-2.8,1.9-4.5l16.6,27.2c0.5,0.9,1.2,1.7,2.1,2.4c0.8,0.7,2,1.1,3.3,1.1h18.1L585.1,407.7z"/>
	</g>
</g>
<path fill="#FAA634" d="M529.3,398.3l-2.7-0.7l0.1-3.3c0-16.9-12.3-30.6-27.2-30.6c-7.2,0-13.8,3.1-19,8.8l-1.7,1.9l-2.3-1.1
	c-4-2-8.1-2.9-12.5-2.9c-16.1,0-29.4,13.6-31.3,31.6l-0.3,2.8l-2.8,0.3c-9.5,0.8-16.9,10-16.9,20.8c0,11.6,8.3,20.9,18.4,20.9
	c3.2,0,6.3-0.9,9.1-2.7l2.3-1.5l2,2c7.2,7.3,20.6,11.9,35.2,11.9c13.7,0,26.2-4,33.8-10.5l1.6-1.5l2,0.8c2.4,1.1,4.9,1.6,7.5,1.6
	c11.9,0,21.6-10.9,21.6-24.4C546.1,410.8,539,400.8,529.3,398.3z M485.8,415.3v15.3c0,4.3-2.8,7.9-6.4,7.9c-3.5,0-6.4-3.5-6.4-7.9
	v-15.3c-4.8-2.4-8-7.2-8-12.9c0-8,6.4-14.4,14.4-14.4c8,0,14.4,6.4,14.4,14.4C493.9,408.1,490.6,412.9,485.8,415.3z"/>
<text transform="matrix(1 0 0 1 21.5351 519.3946)" display="none" fill="#A7A9AC" enable-background="new    " font-family="'ArialMT'" font-size="55.9269">True Security is Beautiful </text>
</svg>
